<?xml version="1.0" standalone="no"?>
<!DOCTYPE svg PUBLIC "-//W3C//DTD SVG 20010904//EN"
 "http://www.w3.org/TR/2001/REC-SVG-20010904/DTD/svg10.dtd">
<svg version="1.0" xmlns="http://www.w3.org/2000/svg"
 width="527.000000pt" height="474.000000pt" viewBox="0 0 527.000000 474.000000"
 preserveAspectRatio="xMidYMid meet">

<g transform="translate(0.000000,474.000000) scale(0.100000,-0.100000)"
fill="#000000" stroke="none">
<path d="M2490 4284 c-19 -2 -82 -9 -140 -15 -201 -21 -447 -96 -641 -193
-227 -115 -381 -226 -559 -405 -184 -185 -295 -338 -408 -566 -99 -199 -159
-391 -194 -615 -18 -115 -17 -540 0 -640 76 -425 243 -764 546 -1103 59 -66
254 -232 262 -224 3 2 5 655 5 1449 l1 1445 90 7 c112 7 432 6 513 -3 l59 -6
171 -216 c242 -307 433 -529 450 -522 8 3 50 48 94 101 141 173 354 435 436
538 l80 101 179 6 c99 4 246 7 328 7 l150 0 -3 -1450 c-1 -797 0 -1453 4
-1456 12 -13 158 109 253 211 301 324 470 635 549 1015 22 105 27 161 32 345
6 235 -3 356 -38 529 -59 295 -224 645 -409 871 -82 100 -279 288 -390 374
-340 262 -755 404 -1215 415 -93 2 -186 2 -205 0z"/>
<path d="M2050 2046 l0 -376 -71 -138 c-80 -154 -209 -399 -418 -792 l-141
-265 25 -23 c37 -32 197 -124 285 -165 94 -42 267 -100 384 -128 178 -41 316
-60 316 -41 0 4 7 77 15 162 8 85 18 183 21 217 l6 63 156 -6 c86 -4 161 -10
165 -14 6 -5 45 -360 47 -423 0 -23 335 42 505 97 160 53 393 168 489 241 21
16 38 -17 -379 765 -49 91 -120 221 -159 290 l-70 125 0 393 c0 215 -1 392 -2
392 -2 0 -33 -37 -69 -82 -37 -46 -115 -138 -173 -205 l-107 -121 -227 1 -227
0 -44 46 c-25 25 -104 116 -177 201 -73 85 -136 157 -141 158 -5 2 -9 -162 -9
-372z m685 -168 c2 -7 5 -80 7 -162 l4 -148 -113 4 c-62 2 -114 6 -116 9 -2 2
2 60 9 129 7 69 13 135 13 147 1 19 8 22 49 26 107 8 143 7 147 -5z m26 -708
c4 -41 9 -130 12 -197 l6 -123 -141 0 -141 0 7 148 c4 81 9 171 13 200 l6 53
116 -3 116 -3 6 -75z"/>
</g>
</svg>
